<mxfile host="65bd71144e">
    <diagram id="Pwh17KiYS3t1jNNCGKba" name="Page-1">
        <mxGraphModel dx="2710" dy="1980" grid="1" gridSize="10" guides="1" tooltips="1" connect="1" arrows="1" fold="1" page="1" pageScale="1" pageWidth="300" pageHeight="400" background="#E3D3D8" math="0" shadow="0">
            <root>
                <mxCell id="0"/>
                <mxCell id="1" parent="0"/>
                <mxCell id="58" value="" style="rounded=1;whiteSpace=wrap;html=1;shadow=0;strokeWidth=3;fontColor=#000000;opacity=70;" parent="1" vertex="1">
                    <mxGeometry x="675" y="364" width="610" height="560" as="geometry"/>
                </mxCell>
                <mxCell id="2" value="Login" style="rounded=1;whiteSpace=wrap;html=1;" parent="1" vertex="1">
                    <mxGeometry x="455" y="524" width="120" height="120" as="geometry"/>
                </mxCell>
                <mxCell id="3" value="" style="shape=flexArrow;endArrow=classic;html=1;fillColor=default;" parent="1" edge="1">
                    <mxGeometry width="50" height="50" relative="1" as="geometry">
                        <mxPoint x="595" y="583.5" as="sourcePoint"/>
                        <mxPoint x="705" y="583.5" as="targetPoint"/>
                        <Array as="points">
                            <mxPoint x="625" y="583.5"/>
                        </Array>
                    </mxGeometry>
                </mxCell>
                <mxCell id="53" value="" style="shape=flexArrow;endArrow=classic;html=1;fillColor=default;" parent="1" edge="1">
                    <mxGeometry width="50" height="50" relative="1" as="geometry">
                        <mxPoint x="514.5" y="654" as="sourcePoint"/>
                        <mxPoint x="514.5" y="704" as="targetPoint"/>
                    </mxGeometry>
                </mxCell>
                <mxCell id="54" value="Sign in" style="rounded=1;whiteSpace=wrap;html=1;" parent="1" vertex="1">
                    <mxGeometry x="455" y="714" width="120" height="120" as="geometry"/>
                </mxCell>
                <mxCell id="55" value="&lt;font color=&quot;#000000&quot;&gt;Not a user&lt;/font&gt;" style="text;html=1;align=center;verticalAlign=middle;resizable=0;points=[];autosize=1;strokeColor=none;fillColor=none;shadow=0;strokeWidth=3;fontStyle=1" parent="1" vertex="1">
                    <mxGeometry x="525" y="659" width="80" height="30" as="geometry"/>
                </mxCell>
                <mxCell id="57" value="Welcome Page" style="rounded=1;whiteSpace=wrap;html=1;" parent="1" vertex="1">
                    <mxGeometry x="215" y="524" width="120" height="120" as="geometry"/>
                </mxCell>
                <mxCell id="62" value="&lt;font color=&quot;#000000&quot;&gt;Auth&lt;/font&gt;" style="text;html=1;align=center;verticalAlign=middle;resizable=0;points=[];autosize=1;strokeColor=none;fillColor=none;shadow=0;strokeWidth=3;fontStyle=1" parent="1" vertex="1">
                    <mxGeometry x="595" y="544" width="50" height="30" as="geometry"/>
                </mxCell>
                <mxCell id="64" value="&lt;font color=&quot;#000000&quot;&gt;Sucessfully&lt;/font&gt;" style="text;html=1;align=center;verticalAlign=middle;resizable=0;points=[];autosize=1;strokeColor=none;fillColor=none;shadow=0;strokeWidth=3;fontStyle=1;rotation=-45;" parent="1" vertex="1">
                    <mxGeometry x="595" y="684" width="90" height="30" as="geometry"/>
                </mxCell>
                <mxCell id="65" value="&lt;b&gt;Session' pages (contain menu/side bar)&lt;br&gt;&lt;/b&gt;" style="text;html=1;align=center;verticalAlign=middle;resizable=0;points=[];autosize=1;strokeColor=none;fillColor=#999999;fontColor=#000000;labelBackgroundColor=none;labelBorderColor=none;" parent="1" vertex="1">
                    <mxGeometry x="855" y="380" width="250" height="30" as="geometry"/>
                </mxCell>
                <mxCell id="67" value="&lt;font style=&quot;font-size: 30px;&quot; color=&quot;#000000&quot;&gt;Pages flow&lt;br&gt;&lt;/font&gt;" style="text;html=1;align=center;verticalAlign=middle;resizable=0;points=[];autosize=1;strokeColor=none;fillColor=#d8c9ce;shadow=0;strokeWidth=3;fontStyle=1" parent="1" vertex="1">
                    <mxGeometry x="650" y="260" width="180" height="50" as="geometry"/>
                </mxCell>
                <mxCell id="68" value="Main Dashboard" style="rounded=1;whiteSpace=wrap;html=1;" parent="1" vertex="1">
                    <mxGeometry x="725" y="524" width="120" height="120" as="geometry"/>
                </mxCell>
                <mxCell id="75" value="" style="shape=flexArrow;endArrow=classic;startArrow=classic;html=1;fontSize=30;fontColor=#000000;fillColor=default;" parent="1" edge="1">
                    <mxGeometry width="100" height="100" relative="1" as="geometry">
                        <mxPoint x="875" y="583.5" as="sourcePoint"/>
                        <mxPoint x="1065" y="584" as="targetPoint"/>
                    </mxGeometry>
                </mxCell>
                <mxCell id="76" value="Profile" style="rounded=1;whiteSpace=wrap;html=1;" parent="1" vertex="1">
                    <mxGeometry x="1085" y="524" width="120" height="120" as="geometry"/>
                </mxCell>
                <mxCell id="80" value="" style="shape=flexArrow;endArrow=classic;html=1;fontSize=30;fontColor=#000000;fillColor=default;" parent="1" edge="1">
                    <mxGeometry width="50" height="50" relative="1" as="geometry">
                        <mxPoint x="595" y="769" as="sourcePoint"/>
                        <mxPoint x="725" y="659" as="targetPoint"/>
                    </mxGeometry>
                </mxCell>
                <mxCell id="81" value="" style="shape=flexArrow;endArrow=classic;html=1;fillColor=default;" parent="1" edge="1">
                    <mxGeometry width="50" height="50" relative="1" as="geometry">
                        <mxPoint x="355" y="583" as="sourcePoint"/>
                        <mxPoint x="425" y="583.4100000000001" as="targetPoint"/>
                        <Array as="points"/>
                    </mxGeometry>
                </mxCell>
                <mxCell id="82" value="&lt;b&gt;pages in /app/*&lt;br&gt;&lt;/b&gt;" style="text;html=1;align=center;verticalAlign=middle;resizable=0;points=[];autosize=1;strokeColor=none;fillColor=#999999;fontColor=#000000;labelBackgroundColor=none;labelBorderColor=none;" parent="1" vertex="1">
                    <mxGeometry x="925" y="880" width="110" height="30" as="geometry"/>
                </mxCell>
            </root>
        </mxGraphModel>
    </diagram>
</mxfile>